<?xml version="1.0" encoding="UTF-8" standalone="no"?>
<!-- Created with Inkscape (http://www.inkscape.org/) -->
<svg
   xmlns:dc="http://purl.org/dc/elements/1.1/"
   xmlns:cc="http://creativecommons.org/ns#"
   xmlns:rdf="http://www.w3.org/1999/02/22-rdf-syntax-ns#"
   xmlns:svg="http://www.w3.org/2000/svg"
   xmlns="http://www.w3.org/2000/svg"
   xmlns:sodipodi="http://sodipodi.sourceforge.net/DTD/sodipodi-0.dtd"
   xmlns:inkscape="http://www.inkscape.org/namespaces/inkscape"
   width="90"
   height="150"
   id="svg2"
   sodipodi:version="0.32"
   inkscape:version="0.46"
   version="1.0"
   sodipodi:docname="resources.svg"
   inkscape:output_extension="org.inkscape.output.svg.inkscape">
  <defs
     id="defs4">
    <inkscape:perspective
       sodipodi:type="inkscape:persp3d"
       inkscape:vp_x="0 : 526.18109 : 1"
       inkscape:vp_y="0 : 1000 : 0"
       inkscape:vp_z="744.09448 : 526.18109 : 1"
       inkscape:persp3d-origin="372.04724 : 350.78739 : 1"
       id="perspective10" />
  </defs>
  <sodipodi:namedview
     id="base"
     pagecolor="#444444"
     bordercolor="#666666"
     borderopacity="1.0"
     gridtolerance="10000"
     guidetolerance="10"
     objecttolerance="10"
     inkscape:pageopacity="0"
     inkscape:pageshadow="2"
     inkscape:zoom="1"
     inkscape:cx="8.1056495"
     inkscape:cy="26.216393"
     inkscape:document-units="px"
     inkscape:current-layer="layer1"
     showgrid="false"
     inkscape:showpageshadow="false"
     borderlayer="false"
     showborder="false"
     inkscape:window-width="958"
     inkscape:window-height="1179"
     inkscape:window-x="0"
     inkscape:window-y="19">
    <inkscape:grid
       type="xygrid"
       id="grid2383"
       visible="true"
       enabled="true" />
  </sodipodi:namedview>
  <metadata
     id="metadata7">
    <rdf:RDF>
      <cc:Work
         rdf:about="">
        <dc:format>image/svg+xml</dc:format>
        <dc:type
           rdf:resource="http://purl.org/dc/dcmitype/StillImage" />
      </cc:Work>
    </rdf:RDF>
  </metadata>
  <g
     inkscape:label="Layer 1"
     inkscape:groupmode="layer"
     id="layer1"
     transform="translate(-95,-180.36218)">
    <g
       id="g3161"
       transform="translate(-78,-233)">
      <path
         sodipodi:nodetypes="ccccccccccccccccccccccccccccc"
         id="path2385"
         d="M 186,435.36218 L 186,443.36218 L 180,443.36218 L 180,435.36218 L 176,434.36218 L 177,432.36218 L 180,433.36218 L 181,430.36218 L 178,428.36218 L 179,427.36218 L 181,428.36218 L 182,424.36218 L 180,423.36218 L 181,421.36218 L 182,422.36218 L 182,419.36218 L 183,418.36218 L 184,422.36218 L 185,421.36218 L 186,423.36218 L 184,424.36218 L 185,428.36218 L 186,427.36218 L 187,429.36218 L 185,430.36218 L 186,432.36218 L 188,431.36218 L 189,433.36218 L 186,435.36218 z"
         style="opacity:1;fill:#79441e;fill-opacity:1;stroke:none;stroke-width:1;stroke-linecap:butt;stroke-linejoin:miter;stroke-miterlimit:4;stroke-dasharray:none;stroke-opacity:1" />
      <path
         style="opacity:1;fill:#00781f;fill-opacity:1;stroke:none;stroke-width:1;stroke-linecap:butt;stroke-linejoin:miter;stroke-miterlimit:4;stroke-dasharray:none;stroke-opacity:1"
         d="M 173,438.36218 L 183,413.36218 L 193,438.36218 L 173,438.36218 z"
         id="path3157"
         sodipodi:nodetypes="cccc" />
    </g>
    <g
       id="g3265"
       transform="translate(-15,-15)">
      <path
         sodipodi:nodetypes="cccccc"
         id="path3171"
         d="M 160,210.36218 L 167,196.36218 L 180,199.36218 L 192,195.36218 L 200,210.36218 L 160,210.36218 z"
         style="opacity:1;fill:#515151;fill-opacity:1;stroke:none;stroke-width:1;stroke-linecap:butt;stroke-linejoin:miter;stroke-miterlimit:4;stroke-dasharray:none;stroke-opacity:1" />
      <path
         sodipodi:nodetypes="cccccc"
         id="path3173"
         d="M 165,210.36218 L 169,202.36218 L 176,205.36218 L 190,200.36218 L 195,210.36218 L 165,210.36218 z"
         style="opacity:1;fill:#5d5d5d;fill-opacity:1;stroke:none;stroke-width:1;stroke-linecap:butt;stroke-linejoin:miter;stroke-miterlimit:4;stroke-dasharray:none;stroke-opacity:1" />
      <path
         sodipodi:nodetypes="cccccc"
         id="path3175"
         d="M 170,210.36218 L 173,206.36218 L 182,208.36218 L 188,204.36218 L 192,210.36218 L 170,210.36218 z"
         style="opacity:1;fill:#6e6e6e;fill-opacity:1;stroke:none;stroke-width:1;stroke-linecap:butt;stroke-linejoin:miter;stroke-miterlimit:4;stroke-dasharray:none;stroke-opacity:1" />
    </g>
    <g
       id="g3260"
       transform="translate(-15,-20.000003)">
      <path
         sodipodi:nodetypes="cccccc"
         style="opacity:1;fill:#515151;fill-opacity:1;stroke:none;stroke-width:1;stroke-linecap:butt;stroke-linejoin:miter;stroke-miterlimit:4;stroke-dasharray:none;stroke-opacity:1"
         d="M 162,230.36218 L 169,219.36218 L 178,222.36218 L 192,220.36218 L 198,230.36218 L 162,230.36218 z"
         id="path3177" />
      <path
         sodipodi:nodetypes="cccccc"
         style="opacity:1;fill:#5d5d5d;fill-opacity:1;stroke:none;stroke-width:1;stroke-linecap:butt;stroke-linejoin:miter;stroke-miterlimit:4;stroke-dasharray:none;stroke-opacity:1"
         d="M 166,230.36218 L 171,224.36218 L 180,226.36218 L 191,225.36218 L 194,230.36218 L 166,230.36218 z"
         id="path3179" />
      <path
         sodipodi:nodetypes="cccccc"
         style="opacity:1;fill:#6e6e6e;fill-opacity:1;stroke:none;stroke-width:1;stroke-linecap:butt;stroke-linejoin:miter;stroke-miterlimit:4;stroke-dasharray:none;stroke-opacity:1"
         d="M 172,230.36218 L 174,228.36218 L 180,229.36218 L 186,228.36218 L 189,230.36218 L 172,230.36218 z"
         id="path3181" />
    </g>
    <g
       id="g3255"
       transform="translate(-15,-25)">
      <path
         id="path3183"
         d="M 163,250.36218 L 169,242.36218 L 180,245.36218 L 190,243.36218 L 196,250.36218 L 163,250.36218 z"
         style="opacity:1;fill:#515151;fill-opacity:1;stroke:none;stroke-width:1;stroke-linecap:butt;stroke-linejoin:miter;stroke-miterlimit:4;stroke-dasharray:none;stroke-opacity:1"
         sodipodi:nodetypes="cccccc" />
      <path
         id="path3185"
         d="M 165,250.36218 L 170,245.36218 L 182,247.36218 L 189,245.36218 L 195,250.36218 L 165,250.36218 z"
         style="opacity:1;fill:#5d5d5d;fill-opacity:1;stroke:none;stroke-width:1;stroke-linecap:butt;stroke-linejoin:miter;stroke-miterlimit:4;stroke-dasharray:none;stroke-opacity:1"
         sodipodi:nodetypes="cccccc" />
      <path
         id="path3187"
         d="M 172,250.36218 L 175,248.36218 L 181,249.36218 L 186,248.36218 L 188,250.36218 L 172,250.36218 z"
         style="opacity:1;fill:#6e6e6e;fill-opacity:1;stroke:none;stroke-width:1;stroke-linecap:butt;stroke-linejoin:miter;stroke-miterlimit:4;stroke-dasharray:none;stroke-opacity:1"
         sodipodi:nodetypes="cccccc" />
    </g>
    <g
       id="g3250"
       transform="translate(-15,-30.000003)">
      <path
         sodipodi:nodetypes="cccccc"
         style="opacity:1;fill:#515151;fill-opacity:1;stroke:none;stroke-width:1;stroke-linecap:butt;stroke-linejoin:miter;stroke-miterlimit:4;stroke-dasharray:none;stroke-opacity:1"
         d="M 167,270.36218 L 174,265.36218 L 179,267.36218 L 187,265.36218 L 194,270.36218 L 167,270.36218 z"
         id="path3189" />
      <path
         sodipodi:nodetypes="cccccc"
         style="opacity:1;fill:#5d5d5d;fill-opacity:1;stroke:none;stroke-width:1;stroke-linecap:butt;stroke-linejoin:miter;stroke-miterlimit:4;stroke-dasharray:none;stroke-opacity:1"
         d="M 168,270.36218 L 174,267.36218 L 180,269.36218 L 187,267.36218 L 193,270.36218 L 168,270.36218 z"
         id="path3191" />
      <path
         sodipodi:nodetypes="ccccccc"
         style="opacity:1;fill:#6e6e6e;fill-opacity:1;stroke:none;stroke-width:1;stroke-linecap:butt;stroke-linejoin:miter;stroke-miterlimit:4;stroke-dasharray:none;stroke-opacity:1"
         d="M 174,270.36218 L 176,268.36218 L 179,270.36218 L 185,270.36218 L 186,269.36218 L 188,270.36218 L 174,270.36218 z"
         id="path3193" />
    </g>
    <g
       id="g3245"
       transform="translate(-15,-35)">
      <path
         id="path3217"
         d="M 169,290.36218 L 176,287.36218 L 181,290.36218 L 182,290.36218 L 185,286.36218 L 192,290.36218 L 169,290.36218 z"
         style="opacity:1;fill:#515151;fill-opacity:1;stroke:none;stroke-width:1;stroke-linecap:butt;stroke-linejoin:miter;stroke-miterlimit:4;stroke-dasharray:none;stroke-opacity:1"
         sodipodi:nodetypes="ccccccc" />
      <path
         id="path3219"
         d="M 171,290.36218 L 176,288.36218 L 180,290.36218 L 183,290.36218 L 186,288.36218 L 190,290.36218 L 171,290.36218 z"
         style="opacity:1;fill:#5d5d5d;fill-opacity:1;stroke:none;stroke-width:1;stroke-linecap:butt;stroke-linejoin:miter;stroke-miterlimit:4;stroke-dasharray:none;stroke-opacity:1"
         sodipodi:nodetypes="ccccccc" />
      <path
         id="path3221"
         d="M 174,290.36218 L 176,289.36218 L 179,290.36218 L 185,290.36218 L 186,289.36218 L 188,290.36218 L 174,290.36218 z"
         style="opacity:1;fill:#6e6e6e;fill-opacity:1;stroke:none;stroke-width:1;stroke-linecap:butt;stroke-linejoin:miter;stroke-miterlimit:4;stroke-dasharray:none;stroke-opacity:1"
         sodipodi:nodetypes="ccccccc" />
    </g>
    <g
       id="g3239"
       transform="translate(-53,-203)">
      <path
         sodipodi:nodetypes="ccccccccccccccccccccccccccccccccccccc"
         id="path3241"
         d="M 186,430.36218 L 186,443.36218 L 180,443.36218 L 180,430.36218 L 178,426.36218 L 175,425.36218 L 175,424.36218 L 177,424.36218 L 175,421.36218 L 176,420.36218 L 178,422.36218 L 178,420.36218 L 179,420.36218 L 180,424.36218 L 182,426.36218 L 182,421.36218 L 180,419.36218 L 180,418.36218 L 182,419.36218 L 182,417.36218 L 183,416.36218 L 184,419.36218 L 186,417.36218 L 187,417.36218 L 184,421.36218 L 184,426.36218 L 186,423.36218 L 187,420.36218 L 188,419.36218 L 188,421.36218 L 190,419.36218 L 191,420.36218 L 189,423.36218 L 191,423.36218 L 191,424.36218 L 188,425.36218 L 186,430.36218 z"
         style="opacity:1;fill:#79441e;fill-opacity:1;stroke:none;stroke-width:1;stroke-linecap:butt;stroke-linejoin:miter;stroke-miterlimit:4;stroke-dasharray:none;stroke-opacity:1" />
      <path
         style="opacity:1;fill:#00781f;fill-opacity:1;stroke:none;stroke-width:1;stroke-linecap:butt;stroke-linejoin:miter;stroke-miterlimit:4;stroke-dasharray:none;stroke-opacity:1"
         d="M 173,418.36218 L 178,413.36218 L 183,423.36218 L 193,423.36218 L 193,428.36218 L 188,433.36218 L 178,433.36218 L 173,428.36218 L 173,418.36218 z"
         id="path3243"
         sodipodi:nodetypes="ccccccccc" />
    </g>
    <g
       transform="translate(-52,-233)"
       id="g3272">
      <path
         style="opacity:1;fill:#79441e;fill-opacity:1;stroke:none;stroke-width:1;stroke-linecap:butt;stroke-linejoin:miter;stroke-miterlimit:4;stroke-dasharray:none;stroke-opacity:1"
         d="M 186,430.36218 L 186,443.36218 L 180,443.36218 L 180,430.36218 L 178,426.36218 L 175,425.36218 L 175,424.36218 L 177,424.36218 L 175,421.36218 L 176,420.36218 L 178,422.36218 L 178,420.36218 L 179,420.36218 L 180,424.36218 L 182,426.36218 L 182,421.36218 L 180,419.36218 L 180,418.36218 L 182,419.36218 L 182,417.36218 L 183,416.36218 L 184,419.36218 L 186,417.36218 L 187,417.36218 L 184,421.36218 L 184,426.36218 L 186,423.36218 L 187,420.36218 L 188,419.36218 L 188,421.36218 L 190,419.36218 L 191,420.36218 L 189,423.36218 L 191,423.36218 L 191,424.36218 L 188,425.36218 L 186,430.36218 z"
         id="path3274"
         sodipodi:nodetypes="ccccccccccccccccccccccccccccccccccccc" />
      <path
         sodipodi:nodetypes="ccccccccc"
         id="path3276"
         d="M 173,418.36218 L 178,413.36218 L 188,413.36218 L 193,418.36218 L 193,428.36218 L 188,433.36218 L 178,433.36218 L 173,428.36218 L 173,418.36218 z"
         style="opacity:1;fill:#00781f;fill-opacity:1;stroke:none;stroke-width:1;stroke-linecap:butt;stroke-linejoin:miter;stroke-miterlimit:4;stroke-dasharray:none;stroke-opacity:1" />
    </g>
    <g
       transform="translate(-53,-173)"
       id="g3278">
      <path
         style="opacity:1;fill:#79441e;fill-opacity:1;stroke:none;stroke-width:1;stroke-linecap:butt;stroke-linejoin:miter;stroke-miterlimit:4;stroke-dasharray:none;stroke-opacity:1"
         d="M 186,430.36218 L 186,443.36218 L 180,443.36218 L 180,430.36218 L 178,426.36218 L 175,425.36218 L 175,424.36218 L 177,424.36218 L 175,421.36218 L 176,420.36218 L 178,422.36218 L 178,420.36218 L 179,420.36218 L 180,424.36218 L 182,426.36218 L 182,421.36218 L 180,419.36218 L 180,418.36218 L 182,419.36218 L 182,417.36218 L 183,416.36218 L 184,419.36218 L 186,417.36218 L 187,417.36218 L 184,421.36218 L 184,426.36218 L 186,423.36218 L 187,420.36218 L 188,419.36218 L 188,421.36218 L 190,419.36218 L 191,420.36218 L 189,423.36218 L 191,423.36218 L 191,424.36218 L 188,425.36218 L 186,430.36218 z"
         id="path3280"
         sodipodi:nodetypes="ccccccccccccccccccccccccccccccccccccc" />
      <path
         sodipodi:nodetypes="cccccc"
         id="path3282"
         d="M 193,423.36218 L 193,428.36218 L 188,433.36218 L 178,433.36218 L 173,428.36218 L 193,423.36218 z"
         style="opacity:1;fill:#00781f;fill-opacity:1;stroke:none;stroke-width:1;stroke-linecap:butt;stroke-linejoin:miter;stroke-miterlimit:4;stroke-dasharray:none;stroke-opacity:1" />
    </g>
    <g
       id="g3284"
       transform="translate(-53,-143)">
      <path
         sodipodi:nodetypes="ccccccccccccccccccccccccccccccccccccc"
         id="path3286"
         d="M 186,430.36218 L 186,443.36218 L 180,443.36218 L 180,430.36218 L 178,426.36218 L 175,425.36218 L 175,424.36218 L 177,424.36218 L 175,421.36218 L 176,420.36218 L 178,422.36218 L 178,420.36218 L 179,420.36218 L 180,424.36218 L 182,426.36218 L 182,421.36218 L 180,419.36218 L 180,418.36218 L 182,419.36218 L 182,417.36218 L 183,416.36218 L 184,419.36218 L 186,417.36218 L 187,417.36218 L 184,421.36218 L 184,426.36218 L 186,423.36218 L 187,420.36218 L 188,419.36218 L 188,421.36218 L 190,419.36218 L 191,420.36218 L 189,423.36218 L 191,423.36218 L 191,424.36218 L 188,425.36218 L 186,430.36218 z"
         style="opacity:1;fill:#79441e;fill-opacity:1;stroke:none;stroke-width:1;stroke-linecap:butt;stroke-linejoin:miter;stroke-miterlimit:4;stroke-dasharray:none;stroke-opacity:1" />
    </g>
    <g
       transform="translate(-53,-113)"
       id="g3292">
      <path
         style="opacity:1;fill:#79441e;fill-opacity:1;stroke:none;stroke-width:1;stroke-linecap:butt;stroke-linejoin:miter;stroke-miterlimit:4;stroke-dasharray:none;stroke-opacity:1"
         d="M 186,438.36218 L 186,443.36218 L 180,443.36218 L 180,438.36218 L 186,438.36218 z"
         id="path3294"
         sodipodi:nodetypes="ccccc" />
      <path
         sodipodi:nodetypes="ccccccccccccc"
         id="path3296"
         d="M 186,435.36218 L 190,437.36218 L 193,438.36218 L 193,439.36218 L 191,439.36218 L 193,442.36218 L 192,443.36218 L 190,441.36218 L 190,443.36218 L 189,443.36218 L 188,439.36218 L 185,437.36218 L 186,435.36218 z"
         style="opacity:1;fill:#79441e;fill-opacity:1;stroke:none;stroke-width:1;stroke-linecap:butt;stroke-linejoin:miter;stroke-miterlimit:4;stroke-dasharray:none;stroke-opacity:1" />
    </g>
    <g
       transform="matrix(0,-1,1,0,-299.86218,499.86218)"
       id="g3298">
      <path
         style="opacity:1;fill:#79441e;fill-opacity:1;stroke:none;stroke-width:1;stroke-linecap:butt;stroke-linejoin:miter;stroke-miterlimit:4;stroke-dasharray:none;stroke-opacity:1"
         d="M 175.5,427.86218 L 174.5,425.86218 L 171.5,424.86218 L 171.5,423.86218 L 173.5,423.86218 L 171.5,420.86218 L 172.5,419.86218 L 174.5,421.86218 L 174.5,419.86218 L 175.5,419.86218 L 176.5,423.86218 L 177.5,426.86218 L 175.5,427.86218 z"
         id="path3300"
         sodipodi:nodetypes="ccccccccccccc" />
    </g>
    <g
       transform="translate(-78,-203)"
       id="g3306">
      <path
         style="opacity:1;fill:#79441e;fill-opacity:1;stroke:none;stroke-width:1;stroke-linecap:butt;stroke-linejoin:miter;stroke-miterlimit:4;stroke-dasharray:none;stroke-opacity:1"
         d="M 186,435.36218 L 186,443.36218 L 180,443.36218 L 180,435.36218 L 176,434.36218 L 177,432.36218 L 180,433.36218 L 181,430.36218 L 178,428.36218 L 179,427.36218 L 181,428.36218 L 182,424.36218 L 180,423.36218 L 181,421.36218 L 182,422.36218 L 182,419.36218 L 183,418.36218 L 184,422.36218 L 185,421.36218 L 186,423.36218 L 184,424.36218 L 185,428.36218 L 186,427.36218 L 187,429.36218 L 185,430.36218 L 186,432.36218 L 188,431.36218 L 189,433.36218 L 186,435.36218 z"
         id="path3308"
         sodipodi:nodetypes="ccccccccccccccccccccccccccccc" />
      <path
         sodipodi:nodetypes="cccccc"
         id="path3310"
         d="M 173,438.36218 L 183,413.36218 L 187,423.36218 L 183,428.36218 L 183,438.36218 L 173,438.36218 z"
         style="opacity:1;fill:#00781f;fill-opacity:1;stroke:none;stroke-width:1;stroke-linecap:butt;stroke-linejoin:miter;stroke-miterlimit:4;stroke-dasharray:none;stroke-opacity:1" />
    </g>
    <g
       id="g3312"
       transform="translate(-78,-173)">
      <path
         sodipodi:nodetypes="ccccccccccccccccccccccccccccc"
         id="path3314"
         d="M 186,435.36218 L 186,443.36218 L 180,443.36218 L 180,435.36218 L 176,434.36218 L 177,432.36218 L 180,433.36218 L 181,430.36218 L 178,428.36218 L 179,427.36218 L 181,428.36218 L 182,424.36218 L 180,423.36218 L 181,421.36218 L 182,422.36218 L 182,419.36218 L 183,418.36218 L 184,422.36218 L 185,421.36218 L 186,423.36218 L 184,424.36218 L 185,428.36218 L 186,427.36218 L 187,429.36218 L 185,430.36218 L 186,432.36218 L 188,431.36218 L 189,433.36218 L 186,435.36218 z"
         style="opacity:1;fill:#79441e;fill-opacity:1;stroke:none;stroke-width:1;stroke-linecap:butt;stroke-linejoin:miter;stroke-miterlimit:4;stroke-dasharray:none;stroke-opacity:1" />
      <path
         style="opacity:1;fill:#00781f;fill-opacity:1;stroke:none;stroke-width:1;stroke-linecap:butt;stroke-linejoin:miter;stroke-miterlimit:4;stroke-dasharray:none;stroke-opacity:1"
         d="M 173,438.36218 L 179,423.36218 L 183,428.36218 L 183,438.36218 L 173,438.36218 z"
         id="path3316"
         sodipodi:nodetypes="ccccc" />
    </g>
    <path
       sodipodi:nodetypes="ccccccccccccccccccccccccccccc"
       id="path3320"
       d="M 108,292.36218 L 108,300.36218 L 102,300.36218 L 102,292.36218 L 98,291.36218 L 99,289.36218 L 102,290.36218 L 103,287.36218 L 100,285.36218 L 101,284.36218 L 103,285.36218 L 104,281.36218 L 102,280.36218 L 103,278.36218 L 104,279.36218 L 104,276.36218 L 105,275.36218 L 106,279.36218 L 107,278.36218 L 108,280.36218 L 106,281.36218 L 107,285.36218 L 108,284.36218 L 109,286.36218 L 107,287.36218 L 108,289.36218 L 110,288.36218 L 111,290.36218 L 108,292.36218 z"
       style="fill:#79441e;fill-opacity:1;stroke:none;stroke-width:1;stroke-linecap:butt;stroke-linejoin:miter;stroke-miterlimit:4;stroke-dasharray:none;stroke-opacity:1" />
    <g
       id="g3334">
      <path
         sodipodi:nodetypes="ccccccccccccc"
         id="path3324"
         d="M 108,322.36218 L 109,323.36218 L 111,321.36218 L 113,322.36218 L 111,323.36218 L 115,325.36218 L 115,326.36218 L 111,325.36218 L 111,326.36218 L 109,327.36218 L 109,325.36218 L 108,324.36218 L 108,322.36218 z"
         style="fill:#79441e;fill-opacity:1;stroke:none;stroke-width:1;stroke-linecap:butt;stroke-linejoin:miter;stroke-miterlimit:4;stroke-dasharray:none;stroke-opacity:1" />
      <path
         style="fill:#79441e;fill-opacity:1;stroke:none;stroke-width:1;stroke-linecap:butt;stroke-linejoin:miter;stroke-miterlimit:4;stroke-dasharray:none;stroke-opacity:1"
         d="M 108,325.36218 L 108,330.36218 L 102,330.36218 L 102,325.36218 L 108,325.36218 z"
         id="path3326"
         sodipodi:nodetypes="ccccc" />
      <path
         style="fill:#79441e;fill-opacity:1;stroke:none;stroke-width:1;stroke-linecap:butt;stroke-linejoin:miter;stroke-miterlimit:4;stroke-dasharray:none;stroke-opacity:1"
         d="M 104,322.36218 L 102,320.36218 L 101,321.36218 L 102,322.36218 L 101,323.36218 L 100,321.36218 L 98,322.36218 L 99,323.36218 L 95,325.36218 L 96,326.36218 L 99,325.36218 L 99,326.36218 L 100,327.36218 L 101,325.36218 L 104,324.36218 L 104,322.36218 z"
         id="path3328"
         sodipodi:nodetypes="cccccccccccccccc" />
    </g>
  </g>
</svg>
